<?xml version="1.0" encoding="utf-8"?>
<!-- Generator: Adobe Illustrator 16.0.0, SVG Export Plug-In . SVG Version: 6.00 Build 0)  -->
<!DOCTYPE svg PUBLIC "-//W3C//DTD SVG 1.1//EN" "http://www.w3.org/Graphics/SVG/1.1/DTD/svg11.dtd">
<svg version="1.1" id="Layer_1" xmlns="http://www.w3.org/2000/svg" xmlns:xlink="http://www.w3.org/1999/xlink" x="0px" y="0px"
	 width="904.487px" height="222.935px" viewBox="0 0 904.487 222.935" enable-background="new 0 0 904.487 222.935"
	 xml:space="preserve">
<g id="loupe_1_">
	<circle fill-rule="evenodd" clip-rule="evenodd" fill="#ffffff" cx="9.167" cy="37.5" r="9.167"/>
	<circle fill-rule="evenodd" clip-rule="evenodd" fill="#ffffff" cx="13.167" cy="11.5" r="8.167"/>
	<circle fill-rule="evenodd" clip-rule="evenodd" fill="#ffffff" cx="40.75" cy="50.916" r="15.75"/>
	<path id="loupe" fill-rule="evenodd" clip-rule="evenodd" fill="#ffffff" d="M219.674,199.824l-42.065-42.065
		C190.988,141.132,199,120.003,199,97c0-53.572-43.429-97-97-97C76.821,0,53.884,9.595,36.642,25.327
		C37.953,25.115,39.296,25,40.667,25c6.546,0,12.502,2.519,16.959,6.637C70.275,23.033,85.548,18,102,18c43.631,0,79,35.37,79,79
		c0,43.631-35.369,79-79,79s-79-35.369-79-79c0-9.056,1.543-17.746,4.349-25.847C20.996,67.145,16.572,60.36,15.792,52.5
		C8.897,65.828,5,80.958,5,97c0,53.572,43.429,97,97,97c19.921,0,38.438-6.009,53.842-16.309l42.982,42.982
		c3.905,3.904,11.516,2.625,16.999-2.857l0.993-0.993C222.299,211.34,223.578,203.729,219.674,199.824z"/>
</g>
<g id="reseau_clair">
	<path fill-rule="evenodd" clip-rule="evenodd" fill="#ffffff" d="M56,124l34-28l4,5l-35,28L56,124z"/>
	<path fill-rule="evenodd" clip-rule="evenodd" fill="#ffffff" d="M106,99l24,28l-5,3l-22-27L106,99z"/>
	<path fill-rule="evenodd" clip-rule="evenodd" fill="#ffffff" d="M96,82l12-39l4,2l-11,39L96,82z"/>
	<path fill-rule="evenodd" clip-rule="evenodd" fill="#ffffff" d="M156,85l-20,44l4,2l20-45L156,85z"/>
	<path fill-rule="evenodd" clip-rule="evenodd" fill="#ffffff" d="M153,72l-36-22l-2,4l35,22L153,72z"/>
	<path fill-rule="evenodd" clip-rule="evenodd" fill="#ffffff" d="M90,83L56,58l-3,4l33,24L90,83z"/>
	<path fill-rule="evenodd" clip-rule="evenodd" fill="#ffffff" d="M106,90l44-10v5l-44,10V90z"/>
	<path fill-rule="evenodd" clip-rule="evenodd" fill="#ffffff" d="M87.72,79.005l18.681,0.433c2.866,0.066,5.135,2.438,5.067,5.298
		l-0.438,18.64c-0.066,2.859-2.444,5.124-5.311,5.058l-18.681-0.434c-2.866-0.066-5.135-2.438-5.067-5.298l0.438-18.64
		C82.476,81.203,84.854,78.939,87.72,79.005z"/>
	<circle fill-rule="evenodd" clip-rule="evenodd" fill="#ffffff" cx="53.5" cy="129.834" r="12.5"/>
	<circle fill-rule="evenodd" clip-rule="evenodd" fill="#ffffff" cx="110.5" cy="45.834" r="12.5"/>
	<circle fill-rule="evenodd" clip-rule="evenodd" fill="#ffffff" cx="155.833" cy="80.5" r="12.5"/>
	<circle fill-rule="evenodd" clip-rule="evenodd" fill="#ffffff" cx="131.833" cy="132.501" r="12.5"/>
</g>
<g id="reseau_bg" opacity="0.15">
	<path fill-rule="evenodd" clip-rule="evenodd" fill="#ffffff" d="M141.337,100.524L175.5,101.5v-4l-33.883-0.916
		C140.948,92.843,137.684,90,133.75,90c-0.102,0-0.2,0.011-0.3,0.015l-12.922-28.267c0.971-1.114,1.634-2.497,1.869-4.024
		l48.358,12.13l-1.194-2.798l-47.657-13.584c-1.194-2.916-4.057-4.972-7.403-4.972c-4.418,0-8,3.582-8,8
		c0,1.788,0.594,3.434,1.585,4.766L95.5,84.5l-34-21l-3,4l34,23l-1,10l-5.836,15.008c-0.055-0.001-0.108-0.008-0.164-0.008
		c-0.878,0-1.721,0.146-2.512,0.408L56.5,70.5l-3,1l26.794,45.934c-0.418,0.358-0.796,0.761-1.132,1.198L50.108,107.84
		c-0.729-1.413-1.863-2.582-3.254-3.349L52.5,72.5l-3,1l-5.538,30.063c-0.316-0.038-0.636-0.063-0.962-0.063c-4.418,0-8,3.582-8,8
		s3.582,8,8,8c3.521,0,6.505-2.279,7.574-5.439l26.978,8.554C77.52,122.905,77.5,123.2,77.5,123.5c0,2.214,0.9,4.218,2.354,5.667
		L58.5,156.5l4,2l20.733-27.331c0.719,0.213,1.479,0.331,2.267,0.331c0.405,0,0.8-0.04,1.189-0.098L110.5,169.5l5-1l18.56-62.516
		c0.542-0.021,1.07-0.095,1.58-0.219L156.5,145.5l3-3l-21-38l-0.178,0.06C139.72,103.583,140.789,102.173,141.337,100.524z
		 M98.5,94.5l5-12l8.312-18.473c0.841,0.301,1.743,0.473,2.688,0.473c0.785,0,1.541-0.118,2.257-0.329l12.736,27.064
		c-2.246,1.417-3.743,3.913-3.743,6.765c0,0.896,0.154,1.755,0.426,2.559l-35.458,16.885c-0.424-0.365-0.883-0.69-1.377-0.962
		L98.5,94.5z M112.5,165.5l-22.157-35.644c1.916-1.462,3.157-3.762,3.157-6.356c0-0.962-0.179-1.881-0.49-2.735l35.095-17.098
		c0.853,0.85,1.899,1.502,3.063,1.899L112.5,165.5z"/>
	<polygon fill-rule="evenodd" clip-rule="evenodd" fill="#ffffff" points="137.5,33.5 132.5,30.5 118.5,45.5 119.5,49.5 	"/>
	<polygon fill-rule="evenodd" clip-rule="evenodd" fill="#ffffff" points="110.5,45.5 94.5,24.5 89.5,25.5 106.5,47.5 	"/>
	<polygon fill-rule="evenodd" clip-rule="evenodd" fill="#ffffff" points="104.5,59.5 105.5,55.5 65.5,64.5 69.5,67.5 	"/>
</g>

</svg>
