<?xml version="1.0" encoding="utf-8"?>
<!-- Generator: Adobe Illustrator 16.0.0, SVG Export Plug-In . SVG Version: 6.00 Build 0)  -->
<!DOCTYPE svg PUBLIC "-//W3C//DTD SVG 1.1//EN" "http://www.w3.org/Graphics/SVG/1.1/DTD/svg11.dtd">
<svg version="1.1" xmlns="http://www.w3.org/2000/svg" xmlns:xlink="http://www.w3.org/1999/xlink" x="0px" y="0px"
	 width="904.487px" height="222.935px" viewBox="0 0 904.487 222.935" enable-background="new 0 0 904.487 222.935"
	 xml:space="preserve">
<g id="Calque_2">
	<ellipse fill="#FFFFFF" cx="97.667" cy="91.346" rx="91.333" ry="89.346"/>
</g>
<g id="Layer_1">
	<circle fill-rule="evenodd" clip-rule="evenodd" fill="#FF8F00" cx="9.167" cy="37.5" r="9.167"/>
	<circle fill-rule="evenodd" clip-rule="evenodd" fill="#FF8F00" cx="13.167" cy="11.5" r="8.167"/>
	<circle fill-rule="evenodd" clip-rule="evenodd" fill="#FF8F00" cx="40.75" cy="50.916" r="15.75"/>
	<path fill-rule="evenodd" clip-rule="evenodd" fill="#FFA300" d="M102,23c-15.7,0-30.248,4.903-42.224,13.242
		C63.2,40.296,65.25,45.421,65.25,51c0,13.117-11.305,23.75-25.25,23.75c-2.856,0-5.599-0.453-8.159-1.275
		C29.363,80.868,28,88.772,28,97c0,40.869,33.131,74,74,74s74-33.131,74-74S142.869,23,102,23z"/>
	<path fill-rule="evenodd" clip-rule="evenodd" fill="#FFFFFF" d="M56,124l34-28l4,5l-35,28L56,124z"/>
	<path fill-rule="evenodd" clip-rule="evenodd" fill="#FFFFFF" d="M106,99l24,28l-5,3l-22-27L106,99z"/>
	<path fill-rule="evenodd" clip-rule="evenodd" fill="#FFFFFF" d="M96,82l12-39l4,2l-11,39L96,82z"/>
	<path fill-rule="evenodd" clip-rule="evenodd" fill="#FFFFFF" d="M156,85l-20,44l4,2l20-45L156,85z"/>
	<path fill-rule="evenodd" clip-rule="evenodd" fill="#FFFFFF" d="M153,72l-36-22l-2,4l35,22L153,72z"/>
	<path fill-rule="evenodd" clip-rule="evenodd" fill="#FFFFFF" d="M90,83L56,58l-3,4l33,24L90,83z"/>
	<path fill-rule="evenodd" clip-rule="evenodd" fill="#FFFFFF" d="M106,90l44-10v5l-44,10V90z"/>
	<path fill-rule="evenodd" clip-rule="evenodd" fill="#FFFFFF" d="M87.72,79.005l18.681,0.433c2.866,0.066,5.135,2.438,5.067,5.298
		l-0.438,18.64c-0.066,2.859-2.444,5.124-5.311,5.058l-18.681-0.434c-2.866-0.066-5.135-2.438-5.067-5.298l0.438-18.64
		C82.476,81.203,84.854,78.939,87.72,79.005z"/>
	<circle fill-rule="evenodd" clip-rule="evenodd" fill="#FFFFFF" cx="53.5" cy="129.834" r="12.5"/>
	<circle fill-rule="evenodd" clip-rule="evenodd" fill="#FFFFFF" cx="110.5" cy="45.834" r="12.5"/>
	<circle fill-rule="evenodd" clip-rule="evenodd" fill="#FFFFFF" cx="155.833" cy="80.5" r="12.5"/>
	<circle fill-rule="evenodd" clip-rule="evenodd" fill="#FFFFFF" cx="131.833" cy="132.501" r="12.5"/>
	<path fill-rule="evenodd" clip-rule="evenodd" fill="#3D3D3D" d="M219.674,199.824l-42.065-42.065
		C190.988,141.132,199,120.003,199,97c0-53.572-43.429-97-97-97C76.821,0,53.884,9.595,36.642,25.327
		C37.953,25.115,39.296,25,40.667,25c6.546,0,12.502,2.519,16.959,6.637C70.275,23.033,85.548,18,102,18c43.631,0,79,35.37,79,79
		c0,43.631-35.369,79-79,79s-79-35.369-79-79c0-9.056,1.543-17.746,4.349-25.847C20.996,67.145,16.572,60.36,15.792,52.5
		C8.897,65.828,5,80.958,5,97c0,53.572,43.429,97,97,97c19.921,0,38.438-6.009,53.842-16.309l42.982,42.982
		c3.905,3.904,11.516,2.625,16.999-2.857l0.993-0.993C222.299,211.34,223.578,203.729,219.674,199.824z"/>
	<g opacity="0.3">
		<path fill-rule="evenodd" clip-rule="evenodd" fill="#FFFFFF" d="M141.337,100.524L175.5,101.5v-4l-33.883-0.916
			C140.948,92.843,137.684,90,133.75,90c-0.102,0-0.2,0.011-0.3,0.015l-12.922-28.267c0.971-1.114,1.634-2.497,1.869-4.024
			l48.358,12.13l-1.194-2.798l-47.657-13.584c-1.194-2.916-4.057-4.972-7.403-4.972c-4.418,0-8,3.582-8,8
			c0,1.788,0.594,3.434,1.585,4.766L95.5,84.5l-34-21l-3,4l34,23l-1,10l-5.836,15.008c-0.055-0.001-0.108-0.008-0.164-0.008
			c-0.878,0-1.721,0.146-2.512,0.408L56.5,70.5l-3,1l26.794,45.934c-0.418,0.358-0.796,0.761-1.132,1.198L50.108,107.84
			c-0.729-1.413-1.863-2.582-3.254-3.349L52.5,72.5l-3,1l-5.538,30.063c-0.316-0.038-0.636-0.063-0.962-0.063c-4.418,0-8,3.582-8,8
			s3.582,8,8,8c3.521,0,6.505-2.279,7.574-5.439l26.978,8.554C77.52,122.905,77.5,123.2,77.5,123.5c0,2.214,0.9,4.218,2.354,5.667
			L58.5,156.5l4,2l20.733-27.331c0.719,0.213,1.479,0.331,2.267,0.331c0.405,0,0.8-0.04,1.189-0.098L110.5,169.5l5-1l18.56-62.516
			c0.542-0.021,1.07-0.095,1.58-0.219L156.5,145.5l3-3l-21-38l-0.178,0.06C139.72,103.583,140.789,102.173,141.337,100.524z
			 M98.5,94.5l5-12l8.312-18.473c0.841,0.301,1.743,0.473,2.688,0.473c0.785,0,1.541-0.118,2.257-0.329l12.736,27.064
			c-2.246,1.417-3.743,3.913-3.743,6.765c0,0.896,0.154,1.755,0.426,2.559l-35.458,16.885c-0.424-0.365-0.883-0.69-1.377-0.962
			L98.5,94.5z M112.5,165.5l-22.157-35.644c1.916-1.462,3.157-3.762,3.157-6.356c0-0.962-0.179-1.881-0.49-2.735l35.095-17.098
			c0.853,0.85,1.899,1.502,3.063,1.899L112.5,165.5z"/>
		<polygon fill-rule="evenodd" clip-rule="evenodd" fill="#FFFFFF" points="137.5,33.5 132.5,30.5 118.5,45.5 119.5,49.5 		"/>
		<polygon fill-rule="evenodd" clip-rule="evenodd" fill="#FFFFFF" points="110.5,45.5 94.5,24.5 89.5,25.5 106.5,47.5 		"/>
		<polygon fill-rule="evenodd" clip-rule="evenodd" fill="#FFFFFF" points="104.5,59.5 105.5,55.5 65.5,64.5 69.5,67.5 		"/>
	</g>
	<g>
		<path fill="#3D3D3D" d="M230.011,115.5h19.022c0.722,5.436,2.807,9.239,6.25,11.414c3.622,2.539,8.603,3.804,14.946,3.804
			c5.613,0,9.872-0.993,12.772-2.989c2.896-1.991,4.348-4.892,4.348-8.695c0-5.796-8.153-10.505-24.458-14.131l-0.543-0.272
			l-2.174-0.543c-9.24-1.991-15.4-4.076-18.479-6.251c-3.626-1.99-6.161-4.891-7.609-8.695c-1.813-3.261-2.717-7.426-2.717-12.5
			c0-8.875,3.078-15.851,9.239-20.925c6.157-4.892,15.125-7.337,26.903-7.337c11.048,0,19.566,2.539,25.544,7.609
			c6.157,5.617,9.417,12.954,9.783,22.011h-10.87c-4.17,0-7.159-1.902-8.968-5.706c-0.909-1.81-2.174-3.351-3.805-4.62
			c-3.261-2.353-7.702-3.532-13.315-3.532c-5.435,0-9.333,0.997-11.685,2.988c-2.717,1.996-4.076,4.803-4.076,8.424
			c0,4.893,5.252,8.518,15.761,10.871c3.079,0.908,5.341,1.451,6.793,1.63c3.261,1.087,6.115,1.948,8.56,2.581
			c2.446,0.638,4.391,1.135,5.843,1.495c2.535,1.087,5.07,2.174,7.609,3.261c3.622,2.174,6.429,4.985,8.424,8.424
			c1.991,3.805,2.989,7.975,2.989,12.501c0,9.783-3.261,17.392-9.783,22.827c-6.522,5.073-15.761,7.608-27.718,7.608
			c-12.322,0-21.561-2.624-27.718-7.881C234.177,133.618,230.555,125.826,230.011,115.5z"/>
		<path fill="#3D3D3D" d="M309.905,144.577V60.879c0-2.717,0.951-5.027,2.854-6.93c1.902-1.902,4.212-2.854,6.929-2.854h58.154
			v16.033h-48.915v20.109h36.414v6.25c0,2.718-0.951,5.027-2.854,6.93s-4.212,2.854-6.93,2.854h-26.631v23.914h48.915v17.392
			H309.905z"/>
		<path fill="#3D3D3D" d="M379.472,97.836c0-15.217,3.983-27.264,11.957-36.142c8.514-8.874,19.655-13.315,33.425-13.315
			c13.587,0,24.729,4.441,33.424,13.315c8.152,9.062,12.229,21.106,12.229,36.142c0,15.04-4.077,26.997-12.229,35.871
			c-8.334,8.696-19.476,13.044-33.424,13.044c-14.131,0-25.272-4.348-33.425-13.044C383.455,125.012,379.472,113.055,379.472,97.836
			z M398.766,97.836c0,10.51,2.263,18.479,6.793,23.914c4.526,5.618,10.959,8.425,19.294,8.425c8.152,0,14.581-2.807,19.294-8.425
			c4.709-5.796,7.065-13.766,7.065-23.914c0-10.143-2.356-18.207-7.065-24.185c-4.713-5.613-11.142-8.425-19.294-8.425
			c-8.335,0-14.768,2.812-19.294,8.425C401.029,79.269,398.766,87.332,398.766,97.836z"/>
		<path fill="#3D3D3D" d="M493.334,60.064v21.739c1.991-3.439,4.892-6.251,8.696-8.425c3.261-1.809,7.244-2.717,11.957-2.717
			c8.513,0,15.489,3.533,20.924,10.598c5.436,7.066,8.153,16.216,8.153,27.446c0,11.235-2.718,20.382-8.153,27.447
			c-2.717,3.443-6.386,5.936-11.005,7.473c-4.62,1.537-9.197,2.31-13.724,2.31c-8.696,0-16.759-2.263-24.186-6.793
			c-7.431-4.526-11.142-13.223-11.142-26.088v-62.23h9.239c2.535,0,4.709,0.908,6.522,2.718
			C492.426,55.355,493.334,57.529,493.334,60.064z M524.313,107.892c0-6.522-1.358-11.592-4.076-15.218
			c-2.718-3.805-6.433-5.707-11.142-5.707c-5.074,0-8.968,1.812-11.686,5.436c-2.717,3.804-4.076,8.967-4.076,15.489
			c0,7.608,1.266,13.137,3.805,16.576c2.718,3.805,6.522,5.707,11.413,5.707c5.07,0,8.968-1.902,11.686-5.707
			S524.313,115.14,524.313,107.892z"/>
		<path fill="#3D3D3D" d="M544.694,120.663h18.479c0.178,3.626,1.537,6.344,4.076,8.152c2.717,1.813,6.339,2.718,10.869,2.718
			c3.262,0,6.068-0.633,8.425-1.902c2.174-1.265,3.261-2.989,3.261-5.163c0-3.261-3.805-5.707-11.413-7.337
			c-3.261-0.544-5.707-1.087-7.338-1.631c-9.604-2.353-16.032-5.163-19.294-8.424c-3.626-3.262-5.435-7.609-5.435-13.044
			c0-6.883,2.624-12.589,7.881-17.12c5.435-4.166,12.5-6.25,21.196-6.25c9.418,0,16.938,2.084,22.555,6.25
			c5.253,4.531,8.06,10.42,8.424,17.664h-11.685c-3.443,0-6.072-1.537-7.881-4.62c-0.726-0.722-1.452-1.448-2.174-2.174
			c-2.174-1.631-5.163-2.446-8.968-2.446c-3.626,0-6.344,0.544-8.152,1.631c-1.631,1.087-2.445,2.717-2.445,4.892
			c0,2.899,4.708,5.346,14.131,7.337c1.087,0.365,2.038,0.637,2.853,0.815c0.815,0.183,1.584,0.271,2.311,0.271
			c9.239,2.356,15.668,5.074,19.294,8.152c3.439,3.261,5.163,7.609,5.163,13.044c0,7.975-2.9,14.131-8.696,18.479
			c-5.435,3.987-13.587,5.979-24.457,5.979c-10.326,0-18.028-2.08-23.099-6.25c-5.257-4.165-7.881-10.232-7.881-18.207V120.663z"/>
		<path fill="#3D3D3D" d="M662.09,122.294h13.587c-1.995,7.608-5.8,13.409-11.413,17.392c-5.617,4.17-12.683,6.25-21.196,6.25
			c-10.326,0-18.39-3.35-24.186-10.055c-5.8-6.521-8.696-15.851-8.696-27.989c0-11.592,2.807-20.653,8.425-27.175
			c5.796-6.701,13.858-10.055,24.186-10.055c10.869,0,19.294,3.261,25.272,9.783c5.796,6.704,8.695,16.033,8.695,27.989
			c0,0.727,0,1.359,0,1.902c0,0.544,0,0.909,0,1.087c0,0.909-0.093,1.541-0.271,1.902h-47.013c0.179,5.617,1.537,9.783,4.077,12.5
			c2.352,2.9,5.885,4.349,10.598,4.349c3.078,0,5.707-0.633,7.881-1.902c0.543-0.179,1.04-0.497,1.494-0.951
			c0.45-0.45,0.951-0.951,1.495-1.495c0.178-0.543,0.857-1.265,2.038-2.174C658.238,122.748,659.916,122.294,662.09,122.294z
			 M629.479,101.098h27.719c-0.365-4.892-1.631-8.514-3.805-10.87c-2.356-2.534-5.706-3.804-10.055-3.804
			c-3.987,0-7.248,1.27-9.782,3.804C631.017,92.768,629.658,96.389,629.479,101.098z"/>
		<path fill="#3D3D3D" d="M679.753,144.577v-35.056c0-7.064,1.04-12.997,3.125-17.799c2.081-4.799,4.934-8.649,8.561-11.55
			c3.438-2.718,7.473-4.708,12.093-5.978c4.619-1.266,9.375-1.902,14.267-1.902c0.36,0,0.814,0,1.358,0s0.993,0,1.358,0v19.293
			h-6.25c-5.257,0-9.15,1.27-11.685,3.805c-2.539,2.539-3.805,6.522-3.805,11.957v37.229H679.753z"/>
		<path fill="#3D3D3D" d="M766.983,144.577h-19.294l-25.272-72.284h20.109l14.402,50.816l12.772-44.295
			c1.447-4.348,4.348-6.521,8.695-6.521h14.131L766.983,144.577z"/>
		<path fill="#3D3D3D" d="M846.062,122.294h13.587c-1.995,7.608-5.8,13.409-11.413,17.392c-5.617,4.17-12.683,6.25-21.196,6.25
			c-10.326,0-18.39-3.35-24.186-10.055c-5.8-6.521-8.696-15.851-8.696-27.989c0-11.592,2.807-20.653,8.425-27.175
			c5.796-6.701,13.858-10.055,24.186-10.055c10.869,0,19.294,3.261,25.272,9.783c5.796,6.704,8.695,16.033,8.695,27.989
			c0,0.727,0,1.359,0,1.902c0,0.544,0,0.909,0,1.087c0,0.909-0.093,1.541-0.271,1.902h-47.013c0.179,5.617,1.537,9.783,4.077,12.5
			c2.352,2.9,5.885,4.349,10.598,4.349c3.078,0,5.707-0.633,7.881-1.902c0.543-0.179,1.04-0.497,1.494-0.951
			c0.45-0.45,0.951-0.951,1.495-1.495c0.178-0.543,0.857-1.265,2.038-2.174C842.211,122.748,843.889,122.294,846.062,122.294z
			 M813.452,101.098h27.719c-0.365-4.892-1.631-8.514-3.805-10.87c-2.356-2.534-5.706-3.804-10.055-3.804
			c-3.987,0-7.248,1.27-9.782,3.804C814.989,92.768,813.631,96.389,813.452,101.098z"/>
		<path fill="#3D3D3D" d="M863.726,144.577v-35.056c0-7.064,1.04-12.997,3.125-17.799c2.081-4.799,4.934-8.649,8.561-11.55
			c3.438-2.718,7.473-4.708,12.093-5.978c4.619-1.266,9.375-1.902,14.267-1.902c0.36,0,0.814,0,1.358,0s0.993,0,1.358,0v19.293
			h-6.25c-5.257,0-9.15,1.27-11.685,3.805c-2.539,2.539-3.805,6.522-3.805,11.957v37.229H863.726z"/>
	</g>
</g>
</svg>
